<?xml version="1.0" standalone="no"?><!DOCTYPE svg PUBLIC "-//W3C//DTD SVG 1.1//EN" "http://www.w3.org/Graphics/SVG/1.1/DTD/svg11.dtd"><svg t="1616353335114" class="icon" viewBox="0 0 1024 1024" version="1.1" xmlns="http://www.w3.org/2000/svg" p-id="8043" xmlns:xlink="http://www.w3.org/1999/xlink" width="200" height="200"><defs><style type="text/css"></style></defs><path d="M252.080737 764.91115l-0.415462-0.297782 3.25616-4.54348 0.415462 0.297782L252.080737 764.91115zM242.667344 751.238756l-0.415462-0.297782 5.735631-8.007371 0.415462 0.297782L242.667344 751.238756zM223.839533 723.891921l-0.415462-0.297782 10.691503-14.924921 0.415462 0.297782L223.839533 723.891921zM214.426139 710.217481l-0.415462-0.297782 13.170974-18.387789 0.415462 0.297782L214.426139 710.217481zM195.600375 682.870646l-0.415462-0.297782 18.123776-25.305339 0.415462 0.297782L195.600375 682.870646zM186.186981 669.194158l-0.415462-0.297782 20.60427-28.764114 0.415462 0.297782L186.186981 669.194158zM167.35917 641.848347l-0.415462-0.297782 21.750373-30.366611 0.415462 0.297782L167.35917 641.848347zM157.945777 628.172883l-0.415462-0.297782 21.751397-30.363542 0.415462 0.297782L157.945777 628.172883zM139.797441 599.875396l-0.415462-0.297782 21.070898-29.41289 0.415462 0.297782L139.797441 599.875396zM132.863519 582.743204l-0.415462-0.297782 18.590404-25.955138 0.415462 0.297782L132.863519 582.743204zM118.99158 548.474726l-0.415462-0.297782 13.635555-19.034519 0.415462 0.297782L118.99158 548.474726zM112.057657 531.34151l-0.415462-0.297782 11.155061-15.575744 0.415462 0.297782L112.057657 531.34151zM98.186741 497.074056l-0.415462-0.297782 6.199189-8.654101 0.415462 0.297782L98.186741 497.074056zM91.252819 479.94084l-0.415462-0.297782 3.718695-5.195326 0.415462 0.297782L91.252819 479.94084z" p-id="8044"></path><path d="M253.022179 770.624269l-7.066953-5.069459 8.024767-11.197016 7.067976 5.068436L253.022179 770.624269zM243.610832 756.949828l-7.071046-5.064342 10.502192-14.662955 7.071046 5.064342L243.610832 756.949828zM224.784044 729.602993l-7.071046-5.064342 15.461133-21.582551 7.067976 5.068436L224.784044 729.602993zM215.368604 715.930599l-7.067976-5.068436 17.936511-25.041326 7.071046 5.064342L215.368604 715.930599zM196.544887 688.581718l-7.071046-5.064342 22.893406-31.961946 7.066953 5.068436L196.544887 688.581718zM187.129446 674.907277l-7.067976-5.068436 25.369807-35.417651 7.071046 5.064342L187.129446 674.907277zM168.301635 647.561465l-7.067976-5.068436 26.51591-37.020148 7.071046 5.064342L168.301635 647.561465zM158.889265 633.884978l-7.071046-5.065366 26.521027-37.020148 7.066953 5.068436L158.889265 633.884978zM140.739906 605.588515l-7.067976-5.068436 25.837458-36.066427 7.071046 5.065366L140.739906 605.588515zM133.805984 588.456323l-7.067976-5.068436 23.356964-32.610722 7.067976 5.068436L133.805984 588.456323zM119.936091 554.185798l-7.071046-5.065366 18.404162-25.690102 7.066953 5.068436L119.936091 554.185798zM113.000122 537.054629l-7.067976-5.068436 15.920598-22.229281 7.071046 5.065366L113.000122 537.054629zM99.131253 502.785128l-7.071046-5.065366 10.967796-15.310707 7.067976 5.068436L99.131253 502.785128zM92.196307 485.654982l-7.067976-5.068436 8.482185-11.850909 7.071046 5.065366L92.196307 485.654982z" p-id="8045"></path><path d="M141.591297 604.671633l-0.192382-0.473791 41.73759-16.891715 0.192382 0.473791L141.591297 604.671633zM203.84413 579.473741l-0.192382-0.473791 82.060971-33.216519 0.192382 0.473791L203.84413 579.473741zM306.42239 537.953092l-0.192382-0.473791 82.060971-33.216519 0.192382 0.474814L306.42239 537.953092zM408.999626 496.435513l-0.192382-0.475837 82.060971-33.217543 0.192382 0.475837L408.999626 496.435513zM511.574816 454.91384l-0.192382-0.474814 82.061994-33.214473 0.192382 0.474814L511.574816 454.91384zM614.150006 413.396261l-0.192382-0.474814 82.065064-33.217543 0.192382 0.474814L614.150006 413.396261zM716.72929 371.874589l-0.192382-0.474814 41.738613-16.893762 0.192382 0.474814L716.72929 371.874589z" p-id="8046"></path><path d="M139.337977 609.999988l-3.272533-8.058536 49.326429-19.963681 3.27151 8.05956L139.337977 609.999988zM201.589786 584.802096l-3.27151-8.058536 89.648786-36.288484 3.272533 8.058536L201.589786 584.802096zM304.164976 543.28247l-3.26537-8.061606 89.645716-36.285414 3.275603 8.058536L304.164976 543.28247zM406.742213 501.764891l-3.267417-8.06263 89.648786-36.288484 3.269463 8.061606L406.742213 501.764891zM509.322519 460.242196l-3.275603-8.058536 89.657996-36.288484 3.260254 8.063653L509.322519 460.242196zM611.889523 418.726663l-3.260254-8.063653 89.653903-36.288484 3.260254 8.063653L611.889523 418.726663zM714.468806 377.204991l-3.260254-8.063653 49.327452-19.965727 3.260254 8.064676L714.468806 377.204991z" p-id="8047"></path><path d="M80.798474 454.405066l-0.19169-0.473252 605.841832-245.396012 0.19169 0.473252-605.841832 245.396012Z" p-id="8048"></path><path d="M78.444095 459.507462 75.179748 451.445856 688.81145 203.372897 692.075797 211.434503Z" p-id="8049"></path><path d="M141.261828 604.530706l-60.861728-150.353773 0.474251-0.191972 60.861728 150.353773-0.474251 0.191972Z" p-id="8050"></path><path d="M139.025868 609.858772 75.086627 451.90225 83.15028 448.63995 147.083381 606.581122Z" p-id="8051"></path><path d="M203.184269 632.521643l-122.760247-178.306498 0.421449-0.290158 122.760247 178.306498-0.421449 0.290158Z" p-id="8052"></path><path d="M202.113719 638.22482 74.717214 453.184453 81.882404 448.254164 209.281979 633.2976Z" p-id="8053"></path><path d="M264.052385 782.89134l-122.760827-178.307341 0.421449-0.290158 122.760827 178.307341-0.421449 0.290158Z" p-id="8054"></path><path d="M262.978948 788.601712 135.586536 603.566462 142.744563 598.623893 270.147208 783.674493Z" p-id="8055"></path><path d="M264.012777 782.82905l-60.862112-150.354722 0.474251-0.191972 60.862112 150.354722-0.474251 0.191972Z" p-id="8056"></path><path d="M205.930157 626.91584l63.933668 157.942742-8.062271 3.263528-63.933668-157.942742 8.062271-3.263528Z" p-id="8057"></path><path d="M955.198519 496.366951l-0.36225-0.36225 9.543354-9.5454 0.36225 0.36225L955.198519 496.366951zM933.562756 495.91465l-0.36225-0.36225 21.949918-21.946848 0.36225 0.36225L933.562756 495.91465zM912.535861 494.862691l-0.36225-0.36225 33.743522-33.746592 0.36225 0.36225L912.535861 494.862691zM892.44529 492.866221l-0.36225-0.36225 44.601824-44.601824 0.36225 0.36225L892.44529 492.866221zM873.543801 489.683738l-0.36225-0.36225 54.271044-54.273091 0.36225 0.36225L873.543801 489.683738zM855.951121 485.193471l-0.36225-0.36225 62.634526-62.633502 0.36225 0.36225L855.951121 485.193471zM840.085782 478.975862l-0.36225-0.36225 69.26555-69.267597 0.36225 0.36225L840.085782 478.975862zM825.96825 471.007377l-0.36225-0.36225 74.15286-74.151837 0.36225 0.36225L825.96825 471.007377zM813.827745 461.064934l-0.36225-0.36225 77.063143-77.061097 0.36225 0.36225L813.827745 461.064934zM803.589566 449.219141l-0.36225-0.36225 78.069053-78.065983 0.36225 0.36225L803.589566 449.219141zM795.084868 435.640891l-0.36225-0.36225 77.343529-77.339436 0.36225 0.36225L795.084868 435.640891zM787.624966 421.019893l-0.36225-0.36225 75.572186-75.572186 0.36225 0.36225L787.624966 421.019893zM780.800537 405.759327l-0.36225-0.36225 73.163323-73.163323 0.36225 0.36225L780.800537 405.759327zM774.16849 390.308427l-0.36225-0.36225 70.497611-70.497611 0.36225 0.36225L774.16849 390.308427zM767.443321 374.946554l-0.36225-0.36225 64.247256-64.243163 0.36225 0.36225L767.443321 374.946554zM760.652661 359.656313l-0.36225-0.36225 58.0583-58.0583 0.36225 0.36225L760.652661 359.656313zM753.738182 344.485799l-0.36225-0.36225 51.997258-51.997258 0.36225 0.36225L753.738182 344.485799zM746.712161 329.428871l-0.36225-0.36225 46.046732-46.046732 0.36225 0.36225L746.712161 329.428871zM739.588927 314.467111l-0.36225-0.36225 40.194444-40.192398 0.36225 0.36225L739.588927 314.467111zM732.342896 299.632241l-0.36225-0.36225 34.464953-34.465976 0.36225 0.36225L732.342896 299.632241zM725.098911 284.794301l-0.36225-0.36225 28.730345-28.733415 0.36225 0.36225L725.098911 284.794301zM717.744409 270.060739l-0.36225-0.36225 23.107277-23.107277 0.36225 0.36225L717.744409 270.060739zM710.357162 255.370155l-0.36225-0.36225 17.521049-17.526165 0.36225 0.36225L710.357162 255.370155zM702.943308 240.696967l-0.36225-0.36225 11.95938-11.95938 0.36225 0.36225L702.943308 240.696967zM695.47829 226.078015l-0.36225-0.36225 6.449899-6.448876 0.36225 0.36225L695.47829 226.078015zM688.014294 211.45497l-0.36225-0.36225 0.933255-0.932232 0.36225 0.36225L688.014294 211.45497z" p-id="8058"></path><path d="M955.198519 502.155794l-6.15007-6.151094 15.328104-15.33015 6.15928 6.142907L955.198519 502.155794zM933.56685 501.6994l-6.160303-6.142907 27.742854-27.738761 6.152117 6.152117L933.56685 501.6994zM912.535861 500.651534l-6.151094-6.152117 39.527249-39.531342 6.15928 6.142907L912.535861 500.651534zM892.441197 498.659157l-6.142907-6.15928 50.390667-50.390667 6.142907 6.15928L892.441197 498.659157zM873.543801 495.472582l-6.151094-6.15007 60.055794-60.057841 6.160303 6.141884L873.543801 495.472582zM855.947028 490.985384l-6.142907-6.15928 68.419276-68.418252 6.15007 6.151094L855.947028 490.985384zM840.085782 484.763682l-6.151094-6.15007 75.054393-75.057463 6.151094 6.152117L840.085782 484.763682zM825.96825 476.79622l-6.15007-6.151094 79.94068-79.94068 6.151094 6.15007L825.96825 476.79622zM813.831838 466.849684l-6.160303-6.141884 82.85608-82.85301 6.152117 6.151094L813.831838 466.849684zM803.589566 455.006961l-6.15007-6.15007 83.860966-83.85892 6.142907 6.15928L803.589566 455.006961zM795.084868 441.429735l-6.152117-6.151094 83.128279-83.124186 6.160303 6.141884L795.084868 441.429735zM787.629059 426.804642l-6.160303-6.141884 81.369216-81.368192 6.142907 6.15928L787.629059 426.804642zM780.80463 411.544077l-6.160303-6.141884 78.952166-78.952166 6.160303 6.141884L780.80463 411.544077zM774.164397 396.101363l-6.142907-6.15928 76.278267-76.278267 6.160303 6.141884L774.164397 396.101363zM767.443321 380.735397l-6.152117-6.151094 70.040193-70.0361 6.142907 6.15928L767.443321 380.735397zM760.648568 365.449249l-6.142907-6.15928 63.844074-63.84305 6.151094 6.15007L760.648568 365.449249zM753.738182 350.274642l-6.151094-6.15007 57.786101-57.786101 6.151094 6.152117L753.738182 350.274642zM746.708068 335.221808l-6.142907-6.15928 51.835575-51.835575 6.142907 6.15928L746.708068 335.221808zM739.588927 320.255954l-6.151094-6.15007 45.984311-45.981241 6.15007 6.151094L739.588927 320.255954zM732.342896 305.421085l-6.15007-6.151094 40.252773-40.253796 6.152117 6.151094L732.342896 305.421085zM725.103004 290.579051l-6.15928-6.142907 34.522258-34.526351 6.15007 6.151094L725.103004 290.579051zM717.740316 275.853675l-6.142907-6.158257 28.892027-28.893051 6.151094 6.152117L717.740316 275.853675zM710.361255 261.154905l-6.15928-6.141884 23.312962-23.320125 6.151094 6.151094L710.361255 261.154905zM702.943308 246.485811l-6.152117-6.152117 17.748223-17.747199 6.15007 6.15007L702.943308 246.485811zM695.48136 231.862765l-6.15928-6.142907 12.246929-12.244882 6.142907 6.15928L695.48136 231.862765zM688.016341 217.237673l-6.15928-6.141884 6.724145-6.718005 6.160303 6.141884L688.016341 217.237673z" p-id="8059"></path><path d="M971.584722 496.67599 963.642842 496.604358 963.644889 496.348532 963.641819 496.604358 959.675484 496.562403 959.678554 496.306576 959.675484 496.562403 955.713242 496.516354 955.716312 496.260527 955.712219 496.516354 951.757141 496.459049 951.761234 496.203222 951.757141 496.459049 947.809225 496.395604 947.813319 496.135684 947.808202 496.395604 943.869496 496.314763 943.874613 496.058936 943.868473 496.314763 939.941024 496.222665 939.947164 495.971955 939.940001 496.222665 936.026878 496.115218 936.034041 495.853251 936.025854 496.115218 934.073386 496.054843 934.081573 495.799016 934.072363 496.054843 932.123988 495.987305 932.132174 495.731478 932.123988 495.987305 930.179706 495.91465 930.189939 495.646544 930.178683 495.91465 928.239518 495.840972 928.248727 495.585145 928.238494 495.840972 926.300352 495.759107 926.311609 495.508397 926.299329 495.759107 924.36835 495.671103 924.38063 495.41016 924.367327 495.671103 922.440441 495.574912 922.452721 495.319086 922.440441 495.574912 920.519696 495.474628 920.531975 495.219825 920.518672 495.474628 918.603043 495.369228 918.616346 495.114424 918.60202 495.369228 916.688437 495.253594 916.702764 494.997768 916.687414 495.253594 914.779971 495.131821 914.796344 494.881111 914.778948 495.131821 912.881738 495.002884 912.898111 494.748081 912.880715 495.002884 910.984528 494.866784 911.002948 494.611981 910.983505 494.866784 909.096529 494.722498 909.114948 494.467695 909.094482 494.722498 907.211599 494.571049 907.232065 494.316246 907.210575 494.571049 905.334855 494.411413 905.356344 494.15354 905.333832 494.411413 903.465275 494.240521 903.487787 493.985718 903.464251 494.240521 901.600811 494.062466 901.62537 493.807662 901.598764 494.062466 899.74351 493.875201 899.769093 493.623467 899.741463 493.875201 897.895419 493.676679 897.923048 493.422899 897.893372 493.676679 896.053468 493.469971 896.08212 493.213122 896.052444 493.469971 894.21868 493.254054 894.248356 493.000274 894.216633 493.254054 892.392078 493.02688 892.424824 492.771053 892.391055 493.02688 890.57571 492.787426 890.608455 492.532623 890.574686 492.786403 888.763434 492.539786 888.79925 492.284983 888.762411 492.539786 886.960369 492.279866 886.997208 492.023016 886.959346 492.278843 885.169583 492.00869 885.207445 491.755933 885.167536 492.00869 883.384937 491.728304 883.424846 491.474524 883.38289 491.727281 881.608477 491.432569 881.650433 491.177765 881.606431 491.432569 879.843274 491.1266 879.887276 490.877937 879.842251 491.1266 878.087281 490.809375 878.13333 490.557642 878.085234 490.809375 876.338451 490.476801 876.386546 490.226091 876.336404 490.476801 874.600877 490.133993 874.651019 489.880213 874.59883 490.13297 872.872512 489.777883 872.924701 489.528196 872.870466 489.776859 871.154381 489.406422 871.208617 489.158782 871.153358 489.406422 869.447507 489.022683 869.503788 488.775043 869.446483 489.022683 867.750865 488.624617 867.809193 488.375953 867.747795 488.623593 866.067526 488.215294 866.127901 487.966631 866.06548 488.214271 864.390327 487.787552 864.453772 487.539912 864.388281 487.786529 862.727455 487.348554 862.792946 487.100914 862.724385 487.34753 861.073792 486.892159 861.140307 486.647589 861.071745 486.891136 859.432409 486.422462 859.503017 486.178915 859.428316 486.422462 857.805352 485.933321 857.87903 485.689774 857.803305 485.933321 856.187505 485.434971 856.26323 485.188354 856.184435 485.433948 854.581937 484.915132 854.659709 484.673631 854.579891 484.914108 852.98865 484.383012 853.069491 484.140489 852.98558 484.380966 851.409688 483.832474 851.493599 483.588927 851.406618 483.83145 849.838913 483.264539 849.926918 483.022015 849.835843 483.263515 848.284511 482.681254 848.374562 482.439754 848.281441 482.680231 846.743412 482.07955 846.836533 481.84112 846.740342 482.078527 845.215616 481.462496 845.311807 481.226113 845.212546 481.461473 843.700099 480.824977 843.79936 480.59064 843.697029 480.823953 842.199932 480.173131 842.30124 479.938793 842.196863 480.172107 841.451896 479.836463 841.557296 479.604172 841.450872 479.83544 840.709999 479.497749 840.816422 479.268528 840.708975 479.497749 839.970148 479.154941 840.077595 478.923674 839.969125 479.153918 839.237461 478.81111 839.344908 478.581889 839.235414 478.810087 838.50375 478.456023 838.615291 478.225779 838.501704 478.456023 837.77618 478.100936 837.889767 477.870692 837.775156 478.099912 837.053726 477.739708 837.167313 477.512535 837.051679 477.738685 836.332295 477.371318 836.446905 477.145168 836.330248 477.370295 835.614957 477.000881 835.731614 476.773707 835.61291 476.998835 834.902736 476.623281 835.022463 476.397131 834.901713 476.622258 834.192561 476.241588 834.313312 476.018507 834.190515 476.240565 833.488527 475.855802 833.6103 475.631698 833.48648 475.854778 832.785515 475.463875 832.910359 475.240795 832.784492 475.463875 832.089667 475.067856 832.215534 474.845799 832.087621 475.067856 831.393819 474.66979 831.521732 474.447732 831.391772 474.667743 830.702064 474.260467 830.832024 474.039433 830.701041 474.260467 830.014402 473.851145 830.146409 473.631134 830.011332 473.850122 829.33288 473.434659 829.466933 473.216695 829.331857 473.433636 828.653405 473.013057 828.788481 472.796116 828.651358 473.013057 827.98007 472.586338 828.118216 472.370421 827.978023 472.586338 827.308781 472.15348 827.446927 471.940632 827.307757 472.152457 826.642608 471.717552 826.782801 471.503681 826.640562 471.716528 825.978483 471.275483 826.119699 471.064682 825.976436 471.273437 825.319473 470.829322 825.462736 470.618521 825.317427 470.828298 824.663534 470.37395 824.808844 470.163149 824.662511 470.372927 824.013735 469.918579 824.161091 469.708801 824.010665 469.916533 823.367005 469.451952 823.513338 469.25036 823.367005 469.451952 822.725392 468.985324 822.875818 468.779639 822.722322 468.983277 822.086849 468.509487 822.239322 468.304825 822.084803 468.508463 821.453423 468.028533 821.607942 467.826941 821.452399 468.027509 820.824089 467.544509 820.979632 467.341894 820.822043 467.542462 820.198849 467.052299 820.355415 466.852754 820.196803 467.050252 819.575656 466.557018 819.735291 466.357474 819.573609 466.554972 818.959625 466.052528 819.121308 465.854007 818.958602 466.052528 818.346665 465.548038 818.509371 465.35054 818.343595 465.545992 817.738821 465.032292 817.901527 464.840934 817.737798 465.031269 817.134047 464.513476 817.301869 464.318024 817.133024 464.512453 816.535413 463.990566 816.704259 463.798185 816.533366 463.98852 815.938825 463.457424 816.112788 463.264019 815.937802 463.456401 815.347354 462.920188 815.51927 462.730876 815.345308 462.917118 814.763047 462.377836 814.938032 462.187501 814.762023 462.376813 814.180785 461.830367 814.355771 461.644125 814.178739 461.82832 813.603641 461.277782 813.780673 461.093587 813.601594 461.275735 813.030589 460.71701 813.208645 460.535885 813.028543 460.715987 812.462654 460.152145 812.64378 459.968973 812.460608 460.150098 811.897789 459.57807 812.080961 459.397968 811.896766 459.576023 811.341111 458.997855 811.525306 458.8198 811.340087 458.996832 810.785455 458.415594 810.97272 458.237539 810.783409 458.413548 810.234917 457.827193 810.422182 457.652208 810.23287 457.825147 809.690518 457.229582 809.878806 457.05869 809.688471 457.227536 809.150212 456.624808 809.340547 456.453916 809.149189 456.623785 808.615023 456.017988 808.808428 455.848119 808.612976 456.015941 808.085974 455.402981 808.281425 455.233112 808.08495 455.401957 807.558971 454.784904 807.752376 454.619128 807.556924 454.781834 807.037085 454.154547 807.23663 453.989795 807.036062 454.153524 806.520315 453.522144 806.718837 453.359438 806.519292 453.521121 806.006616 452.885648 806.20616 452.723965 806.004569 452.883601 805.497009 452.241988 805.699624 452.081329 805.495986 452.239941 804.994566 451.594235 805.195134 451.437669 804.992519 451.593212 804.493146 450.938296 804.696784 450.782753 804.493146 450.935226 803.998889 450.28031 804.201503 450.127837 803.996842 450.278263 803.506678 449.613114 803.713386 449.460642 803.505655 449.611068 803.019585 448.943872 803.225269 448.794469 803.018561 448.942849 802.536584 448.26849 802.746362 448.117041 802.535561 448.267467 802.056654 447.590038 802.265408 447.442682 802.054607 447.587991 801.580816 446.902376 801.794687 446.753997 801.580816 446.901353 801.109072 446.214714 801.322943 446.065312 801.108049 446.212668 800.639375 445.518866 800.853245 445.375603 800.638351 445.517843 800.17377 444.820971 800.385595 444.679755 800.171724 444.817901 799.713282 444.113867 799.931247 443.974697 799.713282 444.112843 798.803563 442.694541 799.018457 442.557418 798.80254 442.692494 797.907147 441.257819 798.125111 441.120696 797.9051 441.253726 797.020964 439.797561 797.240975 439.665555 797.01994 439.796538 796.1532 438.328094 796.372188 438.198134 796.151154 438.326047 795.293623 436.839183 795.514657 436.71127 795.2926 436.837136 794.445302 435.339016 794.66736 435.213149 794.444279 435.33697 793.608238 433.82043 793.832342 433.69661 793.606191 433.81736 792.785499 432.289564 793.010627 432.16779 792.785499 432.28854 791.971971 430.748465 792.197098 430.628738 791.969924 430.746418 791.166629 429.190993 791.393803 429.074336 791.166629 429.188946 790.372543 427.624311 790.602787 427.507654 790.37152 427.623287 789.586644 426.047396 789.815865 425.932786 789.585621 426.045349 788.807908 424.457178 789.037129 424.344614 788.806885 424.455131 788.038382 422.86082 788.268626 422.750303 788.038382 422.859797 787.277042 421.25116 787.507286 421.142689 787.276019 421.250136 786.522865 419.635359 786.757203 419.526889 786.522865 419.635359 785.773805 418.012396 786.005073 417.904948 785.772782 418.010349 785.032932 416.383292 785.270339 416.275845 785.032932 416.382269 784.297175 414.744979 784.529465 414.639578 784.296151 414.743956 783.565511 413.102572 783.798824 412.998195 783.565511 413.101549 782.83794 411.454026 783.071254 411.350672 782.836917 411.453003 782.116509 409.801387 782.347776 409.700079 782.116509 409.800363 780.68081 406.485875 780.919241 406.383544 780.68081 406.484851 779.259438 403.159106 779.487635 403.061892 779.258415 403.159106 770.753717 383.245568 763.564991 366.902344 756.280074 350.772992 747.419266 331.679122 736.94675 309.714877 732.41862 300.390511 723.303009 281.872762 714.119859 263.504416 698.715007 233.118362 686.344259 208.919217 686.79963 208.685903 692.985516 220.781382 692.796204 220.878596 692.985516 220.781382 699.170378 232.886071 698.967764 232.989425 699.170378 232.886071 702.260763 238.947114 702.025403 239.066841 702.260763 238.947114 705.346031 245.01532 705.118857 245.130953 705.346031 245.01532 708.427206 251.091712 708.206172 251.204276 708.427206 251.091712 711.504288 257.178337 711.263811 257.299087 711.505311 257.178337 714.5783 263.275195 714.354196 263.386736 714.5783 263.275195 717.646172 269.38331 717.421045 269.496897 717.646172 269.384333 720.705857 275.506774 720.476637 275.621385 720.705857 275.507798 723.760426 281.645588 723.532229 281.759175 723.760426 281.645588 726.807832 287.798728 726.572472 287.915385 726.808856 287.799752 729.848075 293.973358 729.616808 294.085922 729.848075 293.973358 732.879108 300.165384 732.657051 300.273854 732.879108 300.165384 734.390531 303.269072 734.149031 303.386752 734.390531 303.269072 735.900931 306.377876 735.679897 306.485323 735.900931 306.377876 737.407238 309.49282 737.183134 309.602314 737.408261 309.493843 738.911498 312.611857 738.661811 312.732607 738.911498 312.611857 740.413712 315.738058 740.182444 315.849598 740.413712 315.739081 741.912855 318.871421 741.669308 318.987055 741.912855 318.871421 743.410975 322.008878 743.172545 322.122465 743.410975 322.009901 744.902956 325.154521 744.672712 325.264015 744.902956 325.154521 746.394936 328.303234 746.160599 328.414775 746.394936 328.304258 747.883847 331.461157 747.639277 331.575768 747.883847 331.462181 749.368664 334.62829 749.1507 334.729597 749.368664 334.62829 750.850411 337.798493 750.613004 337.910033 750.850411 337.798493 752.329089 340.977905 752.097822 341.085352 752.329089 340.977905 753.803673 344.16448 753.55501 344.279091 753.803673 344.16448 755.275187 347.358219 755.035734 347.468736 755.276211 347.358219 756.745678 350.559121 756.516458 350.664521 756.745678 350.560144 758.211053 353.769232 757.980809 353.874633 758.211053 353.770256 759.671311 356.989577 759.443114 357.092931 759.671311 356.989577 761.128499 360.214015 760.895185 360.320439 761.129522 360.215038 762.582617 363.449709 762.344187 363.557156 762.582617 363.450732 764.032642 366.69359 763.781932 366.80513 764.032642 366.69359 765.48062 369.94361 765.246283 370.046964 765.48062 369.94361 766.922459 373.204887 766.681982 373.311311 766.922459 373.20591 768.35918 376.47435 768.118704 376.579751 768.360204 376.47435 769.794879 379.756093 769.555425 379.859447 769.794879 379.756093 771.223415 383.042953 770.982938 383.14733 771.223415 383.042953 772.64888 386.343115 772.423753 386.440329 772.64888 386.344139 774.070252 389.650441 773.838985 389.749702 774.070252 389.650441 775.487531 392.968 775.253194 393.068284 775.488555 392.968 776.902764 396.296815 776.667404 396.396075 776.902764 396.296815 784.762779 414.535201 787.739577 421.034219 790.044062 425.819199 792.424272 430.510034 794.891464 435.088306 796.593222 438.07022 798.343075 440.989713 801.530674 445.924095 804.407188 449.973318 807.432081 453.828113 810.068118 456.884728 812.824905 459.788871 815.692209 462.542588 818.674123 465.154066 821.764508 467.62228 824.955176 469.954395 828.254316 472.155527 831.651692 474.227722 835.852364 476.547557 840.187089 478.691383 842.405617 479.704456 845.407997 480.988706 848.46666 482.20337 851.579557 483.350496 854.739527 484.429061 857.953731 485.445204 861.211938 486.399949 864.517217 487.292272 867.867522 488.12729 872.977913 489.277486 878.181425 490.305909 883.464755 491.220744 888.836089 492.031203 894.278031 492.745471 901.648906 493.552859 909.134391 494.211868 918.631696 494.858598 924.39291 495.160473 924.39291 495.15945 936.042227 495.603565 947.816388 495.883951 963.647959 496.092705 971.588815 496.164337Z" p-id="8060"></path><path d="M975.637014 500.80503 967.685925 500.734422 967.685925 500.740562 963.720613 500.698606 963.720613 500.703723 959.740976 500.662791 959.740976 500.66893 955.769524 500.614695 955.769524 500.616742 951.822632 500.564553 951.822632 500.57274 947.848111 500.494968 947.848111 500.502132 943.653579 500.423337 943.654602 500.420267 939.97684 500.329193 939.97684 500.331239 938.020278 500.271888 938.020278 500.288261 936.087253 500.226862 936.087253 500.229932 934.086689 500.156254 934.086689 500.160347 932.16799 500.103042 932.16799 500.104065 931.826206 500.093832 931.827229 500.089739 930.176636 500.030387 930.176636 500.033457 928.252821 499.9475 928.251797 499.962849 926.337191 499.868705 926.337191 499.878938 924.005077 499.775584 924.0061 499.765351 922.465001 499.69372 922.465001 499.703953 920.532999 499.594459 920.532999 499.600599 918.570297 499.480872 918.569274 499.492128 916.691507 499.372402 916.691507 499.379565 914.746202 499.256768 914.745179 499.258815 912.855132 499.121691 912.854109 499.132948 910.954853 498.988662 910.953829 498.997871 909.063783 498.845399 909.062759 498.862795 907.17169 498.698043 907.17169 498.705206 906.597615 498.656087 906.598638 498.650971 905.241734 498.53329 905.240711 498.543523 903.37727 498.367515 903.375224 498.382864 901.482107 498.190483 901.481084 498.198669 899.645273 498.001171 899.643226 498.013451 899.037429 497.945913 899.038452 497.942843 897.769552 497.807766 897.767506 497.820046 897.126916 497.747391 897.127939 497.740228 895.912251 497.603105 895.910205 497.620501 895.266545 497.538637 895.267569 497.535567 894.087697 497.383094 894.086673 497.396397 893.377522 497.30737 893.378545 497.299183 892.226303 497.157967 892.224256 497.173316 891.526361 497.080196 891.527384 497.074056 890.406864 496.9267 890.404818 496.936933 889.674177 496.840742 889.676224 496.827439 888.573099 496.677013 888.572076 496.688269 887.806643 496.581846 887.807666 496.568543 886.754684 496.410953 886.751614 496.433466 884.943432 496.148987 884.940362 496.16536 884.133997 496.039493 884.136044 496.025167 883.146507 495.865531 883.143437 495.881904 882.325815 495.746828 882.327862 495.734548 881.345488 495.571842 881.340371 495.596402 880.514563 495.445976 880.515586 495.439836 879.555725 495.268944 879.552655 495.284293 878.705358 495.134891 878.708428 495.117494 877.787452 494.949672 877.784382 494.966045 876.904339 494.803339 876.907409 494.785943 875.993596 494.613004 875.98848 494.638587 875.098203 494.457462 875.10025 494.447229 874.265232 494.278383 874.260116 494.300896 873.324814 494.108514 873.327884 494.091118 872.522542 493.916133 872.515379 493.946832 871.549378 493.730914 871.551424 493.720681 870.736872 493.542626 870.732779 493.563092 869.795431 493.357408 869.799524 493.335918 869.045347 493.171166 869.040231 493.195725 868.013855 492.958318 868.018971 492.934782 867.295494 492.759797 867.289354 492.784356 866.281397 492.540809 866.286514 492.51932 865.577363 492.347404 865.568153 492.38015 864.553033 492.117161 864.557126 492.100788 863.91756 491.929896 863.909373 491.959571 862.821599 491.673046 862.827739 491.64951 862.157473 491.476571 862.145194 491.515457 861.13212 491.226884 861.13519 491.211535 860.505857 491.022223 860.497671 491.048829 859.400686 490.740814 859.406826 490.712161 858.837868 490.557642 858.826612 490.591411 857.716324 490.260883 857.723487 490.234277 857.184205 490.064408 857.172949 490.097154 856.063685 489.754347 856.070848 489.728764 855.515193 489.559918 855.503936 489.591641 854.35374 489.228367 854.36295 489.194598 853.888136 489.028822 853.871763 489.073848 852.698031 488.670665 852.704171 488.652246 852.240613 488.500796 852.22731 488.534566 851.071997 488.140593 851.083254 488.104777 850.632999 487.940025 850.616626 487.986073 849.431637 487.551168 849.439824 487.526609 848.999802 487.364927 848.984453 487.399719 847.81072 486.968907 847.824023 486.931045 847.421864 486.778572 847.402421 486.823598 846.206176 486.354923 846.217433 486.325247 845.832669 486.168682 845.81425 486.209614 844.596516 485.72252 844.609819 485.685681 844.279291 485.548558 844.262918 485.58642 843.463716 485.24259 843.459622 485.251799 843.020624 485.075791 843.02881 485.055324 842.706469 484.907968 842.694189 484.932528 841.943083 484.59893 841.941036 484.602 841.441663 484.402455 841.453942 484.372779 841.160253 484.239749 841.141834 484.278635 840.362075 483.917408 840.360028 483.921501 839.884191 483.724003 839.89647 483.694327 839.622224 483.560274 839.605851 483.591997 838.838372 483.220536 838.829162 483.238956 838.337975 483.010759 838.345138 482.992339 838.094428 482.864426 838.083172 482.886939 837.324902 482.515479 837.316715 482.532875 836.824505 482.297514 836.833715 482.277048 836.580958 482.142995 836.570725 482.162438 836.022233 481.886145 836.028373 481.871819 835.810409 481.762325 835.796082 481.788931 835.273173 481.516732 835.277266 481.505475 835.085908 481.401098 835.073628 481.423611 834.543555 481.149365 834.549695 481.132992 834.338894 481.033731 834.327638 481.054197 833.785286 480.773811 833.796542 480.751299 833.600067 480.639758 833.591881 480.654085 833.025992 480.353233 833.033156 480.338906 832.835657 480.241692 832.822354 480.264205 832.288189 479.973586 832.297398 479.954143 832.138786 479.861022 832.12753 479.879442 831.555501 479.56631 831.566758 479.544821 831.374376 479.438397 831.352887 479.472166 830.835094 479.164151 830.839187 479.156988 830.660108 479.047494 830.648852 479.065913 830.116733 478.765061 830.127989 478.743572 829.944817 478.629985 829.923328 478.664777 829.366649 478.322993 829.370743 478.314807 829.196781 478.206336 829.176314 478.237035 828.633962 477.903437 828.641125 477.891158 828.499909 477.800084 828.491723 477.813387 827.942207 477.481835 827.95244 477.462392 827.792804 477.368248 827.777455 477.389738 827.208497 477.042837 827.220776 477.019301 827.060117 476.9139 827.042721 476.939483 826.512648 476.601792 826.519812 476.588489 826.372455 476.504578 826.355059 476.530161 825.801451 476.175073 825.812707 476.154607 825.687864 476.068649 825.679677 476.081952 825.100486 475.709469 825.111742 475.691049 824.948013 475.593835 824.924477 475.625558 824.393381 475.263307 824.401568 475.247958 824.276724 475.157907 824.268538 475.169163 823.698556 474.782354 823.710836 474.763934 823.55734 474.66979 823.537897 474.696396 823.011918 474.331076 823.024198 474.312656 822.891168 474.213395 822.867632 474.244095 822.314023 473.841935 822.32221 473.828632 822.202483 473.737558 822.184063 473.760071 821.646827 473.364051 821.655014 473.351771 821.540404 473.272977 821.521984 473.29549 820.974515 472.904587 820.990888 472.879004 820.846602 472.77872 820.839439 472.78793 820.283784 472.40419 820.30425 472.375537 820.173267 472.28651 820.147684 472.317209 819.633984 471.922213 819.645241 471.904817 819.52449 471.805556 819.514257 471.817836 818.983161 471.41363 818.991348 471.400327 818.830689 471.287763 818.810223 471.313346 818.302663 470.917326 818.316989 470.894813 818.181913 470.780203 818.169633 470.794529 817.63956 470.365764 817.64877 470.353484 817.5403 470.275713 817.52802 470.290039 816.994877 469.87867 817.019437 469.845924 816.882314 469.735407 816.853661 469.76713 816.356334 469.344504 816.366567 469.330178 816.231491 469.210451 816.213072 469.230917 815.702442 468.800106 815.716768 468.781686 815.581692 468.671169 815.560202 468.695728 815.098691 468.298685 815.111994 468.280266 814.965661 468.148259 814.944172 468.170772 814.451962 467.745077 814.466288 467.726657 814.306652 467.599767 814.298466 467.606931 813.813419 467.207841 813.842071 467.171002 813.687552 467.024669 813.655829 467.057415 813.201481 466.626603 813.207621 466.618417 813.051055 466.484364 813.033659 466.499713 812.590568 466.104717 812.612057 466.079134 812.442188 465.909266 812.411489 465.939965 811.962258 465.49585 811.967374 465.488687 811.809785 465.339284 811.784202 465.36282 811.354414 464.949404 811.369763 464.933031 811.207058 464.773396 811.198871 464.780559 810.75578 464.378399 810.784432 464.345654 810.594097 464.168622 810.576701 464.184995 810.146912 463.768509 810.165332 463.74702 809.987277 463.585337 809.959647 463.608873 809.567721 463.204667 809.580001 463.191364 809.376363 462.968284 809.34771 462.993866 808.978297 462.59887 808.986483 462.58966 808.815591 462.400349 808.800241 462.413652 808.396035 462.005352 808.417525 461.981816 808.193421 461.766922 808.170908 461.786365 807.807634 461.397508 807.822984 461.381136 807.643905 461.172381 807.636742 461.178521 807.235606 460.772268 807.260166 460.746686 807.045271 460.530768 807.019689 460.552258 806.685068 460.173634 806.697347 460.161355 806.47222 459.896318 806.452777 459.911668 806.102806 459.519742 806.119179 459.503369 805.914518 459.261868 805.900192 459.273125 805.554314 458.886315 805.566594 458.874035 805.328164 458.624349 805.328164 458.624349 805.325094 458.621279 804.988426 458.268238 805.017078 458.240609 804.443004 457.626625 804.474726 457.596949 804.238342 457.317587 804.2189 457.332936 803.908838 456.955336 803.922141 456.943057 803.697013 456.660624 803.68985 456.666764 803.382858 456.308607 803.398208 456.29428 803.126009 455.986265 803.124985 455.987289 802.827203 455.647551 802.855856 455.622992 802.616402 455.314976 802.601052 455.326233 802.326806 454.977285 802.33397 454.971146 801.790594 454.334649 801.82027 454.308043 801.573653 453.974445 801.565467 453.979562 801.268708 453.607078 801.289174 453.589682 801.024138 453.262224 801.006741 453.273481 800.757055 452.93579 800.768311 452.927603 800.248472 452.265524 800.277124 452.241988 799.741935 451.565583 799.769564 451.54307 799.764448 451.535907 799.248701 450.870758 799.273261 450.852338 798.981618 450.456319 798.964222 450.467575 798.767747 450.176956 798.772864 450.172863 798.477129 449.756377 798.473035 449.758424 798.257118 449.465758 798.275537 449.451432 797.783327 448.753537 797.80584 448.736141 797.508058 448.326818 797.498848 448.332958 797.302373 448.043363 797.313629 448.035176 796.834722 447.326025 796.848025 447.316815 796.529777 446.867584 796.526707 446.86963 796.343535 446.603571 796.357861 446.592314 795.887141 445.86372 795.89635 445.856557 795.581172 445.398116 795.575032 445.402209 795.431769 445.180152 795.440979 445.172989 794.950815 444.412672 794.974351 444.398346 794.656103 443.921485 794.654057 443.923532 794.496467 443.681008 794.50977 443.672822 794.038026 442.895109 794.054399 442.884876 793.759687 442.413132 793.748431 442.420295 793.14161 441.448154 793.183566 441.421548 792.859177 440.901709 792.843828 440.910918 792.272823 439.96436 792.308639 439.941847 791.952528 439.337073 791.930015 439.349353 791.388686 438.410981 791.417339 438.393585 791.103184 437.824627 791.085788 437.83486 790.552645 436.892395 790.580275 436.877045 790.23542 436.261015 790.217001 436.270225 789.707394 435.344133 789.731954 435.33083 789.372773 434.686147 789.367657 434.688193 788.87033 433.796894 788.905122 433.776428 788.542872 433.113325 788.534685 433.118442 788.046568 432.210769 788.074198 432.19542 787.727297 431.520037 787.711947 431.526177 787.244296 430.621575 787.263739 430.611342 786.904559 429.918563 786.897396 429.922656 786.449187 429.054893 786.473747 429.04159 786.102287 428.306856 786.092054 428.310949 785.648962 427.429883 785.669428 427.419649 785.301038 426.675706 785.293875 426.678776 784.868179 425.824315 784.889669 425.813059 784.529465 425.072185 784.524348 425.075255 784.104793 424.219771 784.124236 424.210561 783.743566 423.421592 783.739473 423.423639 783.338337 422.592714 783.357779 422.582481 782.97404 421.780209 782.97097 421.781232 782.569834 420.939051 782.588253 420.929842 782.232143 420.163385 782.229073 420.165432 781.826913 419.305855 781.842263 419.297668 781.077853 417.649122 781.095249 417.640935 780.731976 416.85299 780.727882 416.855036 780.352329 416.029228 780.364609 416.023088 779.989055 415.182954 779.988032 415.182954 779.603269 414.335656 779.618619 414.329517 778.896164 412.711669 778.909467 412.70553 778.523681 411.838789 778.518564 411.841859 778.1645 411.030377 778.17064 411.027307 777.44614 409.377738 777.462512 409.370575 776.730848 407.690306 776.739035 407.685189 775.287987 404.335908 775.30743 404.327722 766.988973 384.853182 759.818667 368.549867 752.550123 352.458377 743.706711 333.402369 733.251591 311.477011 728.735741 302.178227 719.630363 283.680944 710.458469 265.335111 695.064874 234.968499 680.840918 207.14685 688.576089 203.169259 694.762999 215.267808 694.764022 215.267808 698.490903 222.556818 698.48988 222.557842 700.954001 227.381707 700.957071 227.380684 704.051549 233.444796 704.054619 233.443773 707.138864 239.502769 707.139887 239.501746 707.76922 240.738923 707.767174 240.739946 710.233342 245.596558 710.235388 245.595534 710.846302 246.800989 710.845279 246.802012 713.322703 251.693416 713.32475 251.691369 713.933617 252.898871 713.932594 252.898871 716.399785 257.788228 716.401832 257.786181 717.009675 258.993682 717.008652 258.993682 719.48096 263.907599 719.48403 263.905552 723.144396 271.210935 723.13928 271.212982 725.601354 276.147364 725.604424 276.146341 726.192825 277.330306 726.191802 277.331329 728.679459 282.343483 728.683553 282.341437 731.722772 288.499693 731.725842 288.497647 732.298893 289.661146 732.295823 289.663192 734.766085 294.695812 734.768131 294.694789 735.332996 295.847032 735.329926 295.849078 736.273415 297.788244 736.276485 297.78722 737.794048 300.896024 737.797118 300.895001 738.358913 302.051337 738.356866 302.05236 739.310587 304.024272 739.314681 304.022225 741.367433 308.260759 741.362316 308.263829 742.34162 310.295092 742.345714 310.293045 742.863507 311.373657 742.862483 311.373657 743.844857 313.421292 743.846904 313.420269 744.37493 314.523393 744.372883 314.524416 745.352187 316.563866 745.35628 316.561819 745.880213 317.66085 745.878167 317.66085 747.37731 320.806493 747.373217 320.807517 748.869291 323.94088 748.863151 323.94395 749.855758 326.044798 749.862921 326.041728 751.848135 330.254679 751.843018 330.256726 752.826416 332.345294 752.829486 332.343247 753.341139 333.437162 753.338069 333.438185 754.319419 335.545172 754.323513 335.543126 754.820839 336.614527 754.819816 336.614527 755.8114 338.744028 755.812423 338.743004 756.288261 339.763241 756.284167 339.765287 757.280868 341.921393 757.283937 341.919347 757.767961 342.969259 757.765915 342.970282 758.771825 345.152994 758.775918 345.150948 759.245615 346.175277 759.244592 346.1763 760.243339 348.360036 760.249479 348.356966 762.177388 352.579127 762.170225 352.582197 763.186368 354.813005 763.189438 354.810958 763.634576 355.793332 763.631506 355.794355 764.649696 358.056885 764.653789 358.054839 765.086647 359.018793 765.085624 359.018793 766.543835 362.255511 766.537695 362.258581 767.563048 364.546693 767.569188 364.5426 769.020236 367.82025 769.02433 367.819227 769.440815 368.762715 769.439792 368.763738 770.466168 371.075387 770.466168 371.075387 770.89084 372.026038 770.883677 372.029108 771.914146 374.376573 771.919263 374.374526 773.345752 377.646036 773.349845 377.643989 773.749958 378.567012 773.747911 378.568035 775.190773 381.87843 775.186679 381.880477 776.216125 384.261711 776.219195 384.259664 776.603959 385.15608 776.602935 385.157103 777.644661 387.585409 777.647731 387.584386 778.034541 388.485919 778.031471 388.487965 779.443633 391.785058 779.434423 391.788128 780.852726 395.10978 780.849656 395.111826 788.522406 412.915307 791.461341 419.329391 793.732058 424.043762 796.075429 428.65785 798.494525 433.147094 800.147164 436.041004 801.818223 438.82542 804.919864 443.626773 807.687908 447.523523 810.594097 451.226868 813.103244 454.137151 815.728024 456.902124 818.460252 459.525881 821.30095 462.013539 824.251142 464.36919 827.299571 466.597951 830.455447 468.703915 833.708538 470.688105 837.749574 472.919936 841.944106 474.994178 844.104305 475.979622 846.968539 477.204519 849.97706 478.398718 852.99479 479.510028 856.061638 480.554824 859.187839 481.542314 862.362134 482.471476 865.584526 483.340263 868.858082 484.155838 873.823164 485.272265 878.975511 486.290455 884.163673 487.187895 889.447003 487.984027 894.810151 488.687038 902.094044 489.484194 909.493571 490.135016 918.910035 490.774583 924.606781 491.072365 936.19777 491.51341 947.914626 491.791749 975.721949 492.107951Z" p-id="8061"></path><path d="M264.414019 783.035135l-0.19169-0.473252 707.193566-286.448494 0.19169 0.473252-707.193566 286.448494Z" p-id="8062"></path><path d="M262.151094 788.320303 258.879584 780.261767 262.67605 778.725784 973.705012 490.722394 976.969359 498.784 973.175963 500.321006Z" p-id="8063"></path><path d="M203.567698 632.891835l-0.193784-0.472435 580.341985-238.045594 0.193784 0.472435-580.341985 238.045594Z" p-id="8064"></path><path d="M201.258235 638.021182 197.964212 629.971855 201.751469 628.421546 786.056238 389.270794 789.355377 397.318074 785.565051 398.869407Z" p-id="8065"></path><path d="M844.535311 320.026536l-158.136885-110.995284 0.293945-0.418788 158.136885 110.995284-0.293945 0.418788Z" p-id="8066"></path><path d="M685.688228 202.906161l164.837494 115.6984-4.99706 7.119397-164.837494-115.6984 4.99706-7.119397Z" p-id="8067"></path><path d="M971.384749 496.568891l-126.873171-176.630767 0.415565-0.298498 126.873171 176.630767-0.415565 0.298498Z" p-id="8068"></path><path d="M970.447828 502.293941 838.797439 319.010591 845.867462 313.945225 977.512734 497.217319Z" p-id="8069"></path></svg>