<?xml version="1.0" standalone="no"?><!DOCTYPE svg PUBLIC "-//W3C//DTD SVG 1.1//EN" "http://www.w3.org/Graphics/SVG/1.1/DTD/svg11.dtd"><svg t="1616510220284" class="icon" viewBox="0 0 1024 1024" version="1.1" xmlns="http://www.w3.org/2000/svg" p-id="2228" xmlns:xlink="http://www.w3.org/1999/xlink" width="200" height="200"><defs><style type="text/css"></style></defs><path d="M153.6 948.224h186.368c18.432 0 33.28-14.848 33.28-32.768s-14.848-32.768-33.28-32.768h-184.32V369.664l345.6-232.448 349.696 244.736v162.816c0 17.92 14.848 32.768 33.28 32.768s33.28-14.848 33.28-32.768v-163.84c0-20.48-10.24-39.424-27.136-51.2l-352.256-245.76c-22.016-15.36-51.2-15.36-73.728-0.512L117.248 316.416c-17.408 11.776-27.648 31.232-27.648 52.224v516.608c-0.512 34.304 28.16 62.976 64 62.976z" p-id="2229"></path><path d="M842.24 782.336h-353.28c-17.408 0-31.744-14.336-31.744-31.744s14.336-31.744 31.744-31.744h353.28c17.408 0 31.744 14.336 31.744 31.744s-14.336 31.744-31.744 31.744z" p-id="2230"></path><path d="M735.232 940.032c-7.68 0-15.872-3.072-22.016-8.704-12.8-12.288-13.824-32.256-1.536-45.056l128.512-137.728-135.168-132.608c-12.8-12.288-12.8-32.768-0.512-45.056 12.288-12.8 32.768-12.8 45.056-0.512l157.696 154.624c12.288 12.288 12.8 31.744 1.024 44.544l-150.016 160.256c-6.144 6.656-14.848 10.24-23.04 10.24z" p-id="2231"></path></svg>