<?xml version="1.0" standalone="no"?><!DOCTYPE svg PUBLIC "-//W3C//DTD SVG 1.1//EN" "http://www.w3.org/Graphics/SVG/1.1/DTD/svg11.dtd"><svg t="1616429254985" class="icon" viewBox="0 0 1024 1024" version="1.1" xmlns="http://www.w3.org/2000/svg" p-id="1441" xmlns:xlink="http://www.w3.org/1999/xlink" width="200" height="200"><defs><style type="text/css"></style></defs><path d="M914.3 318.2L523.5 117.5c-8.1-4.1-17.3-3.5-24.5 0.9L109.7 318.2c-12.3 6.3-17.2 21.4-10.9 33.8 4.4 8.7 13.2 13.6 22.3 13.6 3.9 0 7.8-0.9 11.4-2.8l31.8-16.3c1.1-0.6 2.4 0.2 2.4 1.5v559.5c0 0.9 0.8 1.7 1.7 1.7H213c0.9 0 1.7-0.8 1.7-1.7V422.9c0-0.9 0.8-1.7 1.7-1.7H806c0.9 0 1.7 0.8 1.7 1.7v228.6c0 0.9 0.8 1.7 1.7 1.7H854c0.9 0 1.7-0.8 1.7-1.7V347.3c0-1.3 1.3-2.1 2.4-1.5l33 16.9c3.7 1.9 7.6 2.8 11.4 2.8 9.1 0 17.9-5 22.3-13.6 6.6-12.3 1.8-27.4-10.5-33.7z m-106.4 2v51.3c0 0.9-0.8 1.7-1.7 1.7H216.6c-0.9 0-1.7-0.8-1.7-1.7v-49.9c0-0.6 0.4-1.2 0.9-1.5l283.1-145.3c8.3-4.2 18.1-4.2 26.4 0l283.2 145.4h-0.6z" p-id="1442"></path><path d="M406.9 481.2H276.6c-0.9 0-1.7 0.8-1.7 1.7v61.6c0 0.9 0.8 1.7 1.7 1.7H407c0.9 0 1.7-0.8 1.7-1.7v-61.6c-0.1-0.9-0.8-1.7-1.8-1.7zM591.2 481.2H460.9c-0.9 0-1.7 0.8-1.7 1.7v61.6c0 0.9 0.8 1.7 1.7 1.7h130.4c0.9 0 1.7-0.8 1.7-1.7v-61.6c-0.1-0.9-0.9-1.7-1.8-1.7zM406.9 609.2H276.6c-0.9 0-1.7 0.8-1.7 1.7v61.6c0 0.9 0.8 1.7 1.7 1.7H407c0.9 0 1.7-0.8 1.7-1.7v-61.6c-0.1-0.9-0.8-1.7-1.8-1.7zM591.2 609.2H460.9c-0.9 0-1.7 0.8-1.7 1.7v61.6c0 0.9 0.8 1.7 1.7 1.7h130.4c0.9 0 1.7-0.8 1.7-1.7v-61.6c-0.1-0.9-0.9-1.7-1.8-1.7zM728.9 794.3v-32.5c0-0.9 0.8-1.7 1.7-1.7h99.9c9.8 0 18.5 5.1 23.4 12.7 0.7 1 2.2 1 2.8-0.1 7.1-12.3 5.9-29.9-11.3-45.3-0.3-0.2-0.8-0.4-1.1-0.4H730.6c-0.9 0-1.7-0.8-1.7-1.7v-32.6c0-1.4-1.5-2.2-2.7-1.4l-71.9 50.8c-0.9 0.7-0.9 2.1 0 2.7l71.9 50.8c1.2 0.9 2.7 0.1 2.7-1.3zM893.5 854.8l-68-48c-1.1-0.8-2.6 0-2.6 1.4v32.5c0 0.9-0.8 1.7-1.7 1.7h-99.9c-9.8 0-18.5-5.1-23.4-12.7-0.7-1-2.2-1-2.8 0.1-7.1 12.3-5.9 29.9 11.3 45.3 0.3 0.2 0.8 0.4 1.1 0.4h113.7c0.9 0 1.7 0.8 1.7 1.7v26.1c0 4.1 4.6 6.5 8 4.1l62.7-44.3c2.8-2.1 2.8-6.3-0.1-8.3z" p-id="1443"></path></svg>